<?xml version="1.0" encoding="UTF-8" standalone="no"?>
<!DOCTYPE svg PUBLIC "-//W3C//DTD SVG 1.1//EN" "http://www.w3.org/Graphics/SVG/1.1/DTD/svg11.dtd">
<!-- Created with Inkscape (http://www.inkscape.org/) by Marsupilami -->
<svg
   xmlns:svg="http://www.w3.org/2000/svg"
   xmlns="http://www.w3.org/2000/svg"
   version="1.1"
   id="svg4601"
   width="634.73053"
   height="183.1123">
  <defs
     id="defs4603" />
  <path
     id="path2482"
     d="M 82.9087,0 0,40.7396 l 0,72.928 82.9087,0 0,-113.6654 z"
     style="fill:#0054a3;fill-opacity:1" />
  <path
     id="path2488"
     d="M 106.4947,183.1123 192.2623,138.0844 82.9048,113.6664 0.2548,113.6154 0,158.0318 106.4947,183.1122 Z"
     style="fill:#b4e114;fill-opacity:1" />
  <path
     id="path2494"
     d="M 0,95.8444 0,158.0258 82.9064,113.6657 0,95.8444 Z"
     style="fill:#0aa0d1;fill-opacity:1" />
  <path
     id="path2500"
     d="m 125.127,17.6025 0,79.334 20.0137,0 0,-42.168 64.3242,44.3125 0,-79.334 -20.7266,0 0,42.168 -63.6113,-44.3125 z m 425.2637,0 0,79.334 20.0136,0 0,-42.8828 64.3262,45.0273 0,-79.334 -20.0137,0 0,42.168 -64.3261,-44.3125 z m -318.0547,2.1445 0,77.1895 77.9062,0 0,-17.8672 -57.1777,0 0,-13.5801 57.1777,0 0,-15.7246 -57.1777,0 0,-13.5801 57.1777,0 0,-16.4375 -77.9062,0 z m 94.3457,0 35.7363,38.5938 -35.7363,38.5957 26.4453,0 22.8711,-26.4453 22.8711,26.4453 26.4453,0 -35.0215,-38.5957 35.0215,-38.5938 -26.4453,0 -22.8711,26.4434 -22.8711,-26.4434 -26.4453,0 z m 115.0703,0 0,77.1895 85.7676,0 0,-77.1895 -85.7676,0 z m 20.0137,18.5821 45.0273,0 0,40.7402 -45.0273,0 0,-40.7402 z"
     style="fill:#000000" />
</svg>
